<?xml version="1.0" standalone="no"?>
<!DOCTYPE svg PUBLIC "-//W3C//DTD SVG 20010904//EN"
 "http://www.w3.org/TR/2001/REC-SVG-20010904/DTD/svg10.dtd">
<svg version="1.0" xmlns="http://www.w3.org/2000/svg"
 width="501.000000pt" height="501.000000pt" viewBox="0 0 501.000000 501.000000"
 preserveAspectRatio="xMidYMid meet">

<g transform="translate(0.000000,501.000000) scale(0.100000,-0.100000)"
fill="#000000" stroke="none">
<path d="M2428 4111 c-66 -37 -86 -59 -118 -121 -33 -65 -50 -82 -138 -136
-45 -27 -91 -68 -142 -128 -60 -70 -91 -96 -155 -132 -91 -51 -147 -102 -211
-191 -24 -34 -54 -65 -66 -69 -26 -8 -32 -1 -106 140 -75 141 -87 151 -199
160 -50 3 -97 4 -107 0 -9 -3 -53 -50 -98 -103 -45 -53 -87 -99 -94 -103 -6
-4 -17 -20 -23 -36 -6 -15 -33 -41 -59 -57 -156 -99 -221 -136 -274 -156 -58
-21 -96 -53 -195 -161 -37 -40 -56 -50 -175 -93 -135 -48 -175 -71 -235 -134
-25 -27 -33 -44 -33 -73 0 -21 5 -38 10 -38 6 0 10 5 10 11 0 5 4 8 9 4 5 -3
11 5 13 17 5 33 28 35 28 1 l1 -28 14 25 c8 14 14 35 15 46 0 27 25 48 45 40
10 -3 15 1 15 12 1 13 4 11 15 -8 8 -14 15 -20 16 -15 1 6 2 15 3 20 0 6 6 18
12 29 9 15 15 16 32 7 17 -9 21 -8 25 7 3 9 5 3 6 -15 0 -17 5 -34 11 -38 5
-3 7 -12 3 -20 -3 -8 0 -15 6 -15 6 0 11 17 12 38 0 31 2 34 10 17 7 -16 8
-11 6 19 -3 31 -1 35 9 22 10 -15 12 -14 17 5 4 15 11 20 22 15 10 -4 19 2 25
18 12 33 38 41 43 13 2 -12 5 -4 6 18 1 27 4 36 10 26 7 -11 13 -7 27 15 10
16 20 31 22 34 1 2 7 -2 12 -10 7 -11 10 -8 11 15 1 29 1 30 9 5 8 -25 8 -25
10 5 l2 30 8 -30 c4 -16 8 -22 9 -12 0 9 5 17 10 17 5 0 13 15 17 33 l8 32 7
-30 7 -30 1 33 c1 32 15 43 24 20 3 -7 6 3 7 22 l2 35 10 -43 c5 -24 14 -40
19 -36 6 3 8 12 5 20 -3 8 -2 22 1 31 6 15 7 15 14 -3 7 -17 8 -17 8 -1 1 10
9 17 21 17 11 0 20 5 20 10 0 6 4 10 9 10 6 0 12 -17 14 -37 3 -28 4 -22 6 22
2 59 2 60 16 30 l13 -30 1 34 c1 26 4 32 17 27 10 -4 22 1 30 11 12 16 13 12
14 -29 0 -59 16 -71 25 -18 4 22 11 40 16 40 5 0 9 9 9 21 0 11 4 17 10 14 11
-7 13 -61 3 -118 -4 -26 -9 -34 -14 -25 -7 10 -9 9 -9 -5 0 -10 -4 -16 -9 -12
-6 3 -8 -9 -7 -27 2 -18 1 -23 -1 -10 -2 12 -8 22 -12 22 -14 0 -33 -28 -27
-39 3 -5 -7 -8 -24 -7 -25 2 -32 -2 -37 -22 -4 -18 -8 -21 -14 -10 -7 11 -9
11 -9 -1 0 -7 -6 -11 -15 -7 -11 4 -15 -1 -15 -19 0 -18 4 -23 15 -19 8 4 15
11 15 16 0 6 5 6 14 -1 22 -19 56 -22 56 -5 0 8 5 13 12 12 7 -2 15 11 19 27
6 28 7 28 9 5 1 -21 3 -22 9 -7 4 10 10 18 14 18 35 -4 50 2 54 20 4 16 8 17
14 7 6 -8 9 -1 9 21 0 75 18 7 19 -74 1 -31 4 -45 10 -37 7 11 10 10 15 -3 3
-9 6 -26 5 -38 0 -21 -1 -21 -9 -2 -7 19 -8 18 -14 -5 -3 -14 -7 -36 -9 -50
-3 -14 -5 -5 -6 19 -1 52 -13 48 -18 -6 -2 -21 -13 -46 -24 -56 -19 -17 -19
-17 -20 25 -2 34 -3 37 -6 13 -3 -16 -9 -34 -14 -39 -5 -6 -9 -27 -9 -47 0
-24 -5 -39 -15 -43 -10 -3 -15 1 -16 12 -1 9 -5 1 -8 -18 -4 -20 -12 -34 -19
-32 -7 1 -12 -6 -13 -15 -1 -12 -4 -10 -9 7 -8 25 -8 25 -9 2 -1 -13 -5 -21
-10 -18 -5 3 -12 -9 -16 -27 -6 -27 -8 -29 -14 -13 -4 11 -15 20 -24 22 -14 2
-17 -8 -19 -54 l-2 -57 -3 53 c-3 43 -7 52 -23 52 -10 0 -24 -8 -29 -17 -10
-17 -12 -16 -30 6 -14 18 -20 21 -24 10 -4 -12 -6 -12 -6 0 -1 11 -4 11 -16 1
-8 -7 -15 -8 -15 -3 0 5 -6 10 -12 10 -7 0 -17 2 -23 3 -5 1 -25 2 -42 1 -27
-1 -33 -5 -33 -22 0 -15 5 -19 15 -15 8 3 15 1 15 -5 0 -6 4 -8 9 -4 5 3 12 1
16 -4 3 -6 44 -22 90 -36 47 -14 85 -30 85 -36 0 -6 7 -9 15 -5 11 4 15 -2 15
-25 0 -16 -6 -32 -14 -35 -9 -3 -17 -27 -22 -60 -3 -29 -10 -51 -15 -48 -5 3
-9 -7 -9 -23 0 -18 -9 -35 -27 -49 -17 -13 -22 -23 -15 -28 15 -9 92 66 92 90
0 20 48 150 72 194 21 42 48 70 146 159 114 103 129 123 146 203 12 53 15 59
22 39 7 -23 8 -24 15 -5 7 17 8 16 8 -6 1 -19 3 -22 11 -10 9 15 10 14 23 -30
5 -18 -19 -44 -33 -35 -9 6 -49 -31 -50 -45 0 -3 13 -11 29 -17 24 -9 31 -8
35 4 3 8 10 12 15 8 6 -3 14 2 19 11 15 27 31 7 39 -49 4 -29 9 -44 11 -34 5
22 22 12 22 -13 0 -10 6 -23 14 -27 9 -5 16 -33 20 -78 5 -66 2 -67 -19 -7
-15 43 -34 19 -36 -46 -2 -29 -3 -31 -6 -10 -3 22 -9 26 -31 25 -34 -2 -42
-13 -42 -60 0 -35 2 -37 20 -27 11 6 20 21 20 33 1 22 1 22 13 2 16 -26 67
-31 67 -7 1 15 2 15 10 1 11 -19 70 -23 71 -6 0 7 6 -6 14 -28 7 -22 13 -34
14 -27 2 23 21 2 21 -24 0 -24 14 -32 25 -14 10 16 25 12 26 -7 0 -15 2 -15 9
2 l9 20 0 -20 c1 -17 3 -17 11 -5 8 12 10 11 10 -7 0 -22 9 -28 38 -24 8 1 16
-7 19 -18 6 -24 23 -28 23 -5 0 12 7 10 33 -10 32 -24 106 -50 116 -40 8 7
-21 24 -41 24 -10 0 -47 26 -82 58 -35 32 -95 75 -133 95 -38 20 -76 44 -84
54 -9 10 -33 68 -54 128 -46 132 -60 162 -91 195 -12 14 -32 46 -44 72 -15 35
-36 58 -83 91 -97 70 -106 84 -123 178 -15 85 -12 165 9 203 14 29 154 197
185 224 25 22 33 23 117 17 50 -3 99 -12 110 -19 11 -7 49 -68 84 -135 39 -73
82 -140 108 -166 65 -66 93 -133 94 -225 0 -41 4 -114 8 -162 8 -86 8 -87 60
-146 43 -51 92 -138 126 -227 4 -12 9 -15 12 -8 8 21 -59 163 -101 215 -22 27
-50 61 -61 75 -15 19 -21 43 -24 106 -3 74 -2 80 13 68 9 -7 43 -26 76 -42 48
-23 68 -40 107 -94 42 -59 58 -72 128 -107 62 -31 95 -56 146 -111 43 -47 63
-75 55 -79 -6 -5 -3 -8 10 -8 11 0 29 -9 39 -20 18 -19 17 -20 -3 -20 -12 0
-22 -5 -22 -11 0 -7 12 -9 34 -5 23 5 37 2 46 -9 17 -20 -10 -31 -39 -15 -14
7 -21 7 -21 0 0 -5 5 -10 10 -10 26 0 6 -19 -27 -25 -24 -4 -32 -9 -24 -15 7
-4 31 -3 54 2 47 10 85 6 52 -6 -11 -5 -27 -11 -35 -14 -9 -3 -2 -8 20 -13
l35 -8 -35 3 c-19 2 -44 6 -55 10 -17 7 -17 5 4 -13 l23 -21 -28 0 c-26 -1
-27 -2 -11 -11 11 -6 31 -9 45 -6 l27 5 -24 -19 c-16 -13 -18 -19 -8 -19 8 0
20 7 27 15 7 8 22 15 33 15 20 0 20 -1 -4 -26 -13 -14 -23 -29 -22 -32 1 -4
-15 -12 -35 -19 l-37 -12 40 3 c22 2 49 7 61 11 18 6 20 2 23 -37 2 -48 5 -53
21 -43 8 5 10 29 7 72 l-5 65 22 -21 c31 -30 44 -26 16 4 -25 27 -18 31 24 15
38 -14 31 3 -10 25 -20 11 -32 21 -26 23 6 2 27 -6 48 -17 48 -26 66 -27 36
-2 l-22 19 42 7 c24 4 56 14 71 22 22 11 28 11 26 1 -1 -7 -1 -37 0 -66 1 -71
21 -58 21 13 l0 55 33 -6 32 -6 -30 26 c-37 31 -28 33 20 5 29 -18 40 -19 63
-10 18 7 37 8 57 2 30 -9 27 -11 -30 -16 -43 -4 -43 -4 -10 -19 l30 -14 -27
-11 c-16 -6 -28 -15 -28 -21 0 -10 25 -3 73 20 14 7 10 0 -11 -18 -23 -21 -29
-31 -20 -35 7 -3 -2 -6 -20 -6 -22 -1 -31 -5 -26 -12 4 -7 23 -9 48 -6 l41 6
-25 -19 c-24 -19 -24 -20 -4 -20 12 0 27 7 34 15 19 23 26 18 28 -22 3 -42 6
-48 21 -38 6 3 11 22 11 41 0 32 2 34 20 24 16 -9 20 -8 20 5 0 8 -4 15 -10
15 -5 0 -10 5 -10 10 0 6 11 3 24 -5 15 -10 27 -12 30 -6 4 5 -2 12 -13 16
-10 3 -26 13 -34 23 -15 17 -14 18 21 15 l37 -3 -28 13 -27 13 27 11 c27 11
27 11 -14 12 -23 1 -45 6 -48 11 -4 7 2 9 19 4 15 -3 26 -2 26 4 0 5 15 15 33
21 27 9 30 9 15 -3 -29 -21 -21 -26 17 -10 45 18 69 18 30 -1 l-30 -15 30 4
c17 2 39 7 50 11 20 8 20 8 1 -13 -10 -11 -31 -24 -47 -27 -16 -4 -26 -11 -23
-17 6 -9 31 -6 68 8 13 5 16 -3 16 -51 0 -77 24 -71 28 7 3 52 5 56 25 51 17
-4 19 -2 8 5 -23 16 25 25 74 14 l40 -9 -45 -20 -44 -20 34 -7 35 -7 -25 -14
c-22 -13 -23 -14 -5 -14 11 0 31 6 45 14 38 22 40 19 40 -40 0 -30 5 -55 10
-55 6 0 10 25 10 55 0 52 1 55 19 45 11 -5 32 -10 48 -9 l28 1 -25 11 c-14 7
-31 16 -39 21 -21 14 6 25 48 19 34 -4 35 -4 17 11 -11 9 -25 16 -31 16 -7 0
-20 10 -31 21 -19 22 -19 22 3 10 12 -6 29 -11 39 -11 13 0 14 3 4 15 -10 13
-9 15 9 15 11 0 21 4 21 9 0 5 -19 7 -42 6 -24 -1 -31 0 -15 2 28 4 38 23 12
23 -27 0 -15 20 13 21 27 1 26 1 -8 16 l-35 16 32 13 c17 7 35 19 39 25 5 9 2
10 -12 5 -45 -19 -74 -24 -79 -15 -4 5 2 9 12 9 11 0 28 6 39 14 17 13 15 14
-23 9 -37 -5 -43 -3 -43 13 0 14 3 15 12 6 19 -19 30 -14 18 8 -6 11 -8 20 -5
20 3 0 -1 12 -10 28 -8 15 -19 45 -24 67 l-8 40 -12 -42 c-6 -23 -16 -45 -22
-49 -8 -5 -8 -9 0 -14 8 -4 5 -15 -9 -33 -17 -22 -18 -27 -6 -27 8 0 19 8 25
17 5 10 13 15 17 11 13 -14 -17 -36 -59 -44 -37 -6 -39 -8 -19 -15 26 -10 28
-15 6 -23 -8 -3 -13 -2 -10 3 3 5 -6 12 -20 15 -17 5 -24 12 -20 21 4 11 -2
13 -27 9 -22 -4 -28 -3 -18 4 7 5 10 15 7 21 -4 6 -1 11 7 11 8 0 21 8 28 17
12 15 12 16 -6 9 -32 -13 -58 -12 -63 3 -3 10 2 11 19 6 13 -4 21 -4 17 0 -4
5 -2 15 5 23 10 13 9 15 -11 10 -16 -5 -25 -1 -33 14 -10 18 -9 18 10 8 26
-14 27 -5 1 27 -11 14 -20 40 -21 57 l-1 31 -10 -30 c-13 -36 -36 -64 -63 -76
-17 -8 -16 -9 8 -6 22 3 25 2 16 -9 -6 -7 -8 -18 -4 -24 4 -6 -6 -10 -25 -10
-41 0 -29 -20 13 -21 18 0 26 -3 20 -6 -7 -2 -13 -9 -13 -15 0 -6 7 -7 16 -4
8 3 12 2 9 -4 -3 -5 -20 -7 -38 -4 -29 5 -30 4 -14 -9 23 -19 22 -30 -3 -17
-22 12 -25 7 -10 -19 6 -13 17 -17 35 -14 15 3 25 1 25 -6 0 -18 -26 -24 -51
-11 -19 11 -21 10 -16 -3 9 -25 -79 -36 -101 -12 -16 16 -14 16 31 10 32 -5
47 -4 47 4 0 6 -3 10 -7 10 -5 -1 -15 -1 -25 0 -22 1 -11 42 14 48 32 9 19 22
-15 16 -24 -3 -39 0 -51 12 -20 21 -13 33 9 15 9 -7 19 -9 23 -5 4 4 1 10 -6
12 -7 3 -17 14 -24 26 -10 20 -10 21 5 8 22 -18 21 -11 -5 44 -22 45 -38 45
-38 -1 0 -12 -9 -33 -21 -48 -21 -26 -14 -36 10 -13 11 10 13 9 9 -2 -2 -8
-18 -19 -35 -25 -45 -16 -54 -29 -15 -24 41 6 38 -15 -3 -22 -16 -3 -27 -9
-26 -15 2 -5 -18 -14 -45 -18 -42 -7 -50 -5 -68 14 l-21 22 23 -7 c74 -21 69
-20 47 -3 -11 9 -15 17 -7 17 6 0 12 5 12 11 0 6 -9 9 -20 6 -10 -3 -25 2 -31
9 -10 13 -6 14 29 8 29 -4 42 -3 42 5 0 6 -12 11 -27 12 -16 0 -22 3 -15 6 19
8 14 23 -8 23 -11 0 -20 5 -20 11 0 7 7 8 18 4 9 -4 28 -10 42 -12 23 -4 24
-3 5 8 -29 17 -29 17 -15 34 11 13 8 14 -19 9 -20 -4 -31 -3 -31 5 0 6 10 12
23 12 13 1 16 3 6 6 -8 2 -21 20 -29 41 -31 88 -31 87 -40 72 -6 -8 -10 -27
-10 -42 0 -14 -12 -40 -26 -57 -27 -33 -23 -42 8 -14 10 9 18 11 18 5 0 -17
-29 -42 -58 -48 -44 -10 -48 -12 -19 -13 31 -1 35 -15 10 -31 -16 -10 -15 -11
4 -7 38 8 37 -12 -1 -30 -20 -9 -36 -20 -36 -25 0 -8 34 3 73 23 21 11 21 10
-2 -15 -26 -27 -22 -33 10 -16 23 13 25 7 3 -14 -10 -10 -24 -14 -40 -10 -19
5 -23 3 -18 -10 5 -13 -1 -16 -32 -17 -31 0 -35 -2 -19 -9 11 -5 40 -6 65 -3
25 3 42 2 38 -1 -13 -15 -115 -23 -132 -11 -14 11 -14 14 4 30 30 28 24 39 -9
16 -42 -30 -52 -26 -13 5 18 14 29 30 26 35 -4 6 -11 6 -20 -2 -17 -14 -19 2
-1 20 10 10 6 11 -18 6 l-30 -6 30 15 30 14 -32 1 c-35 1 -53 19 -32 32 11 6
10 11 -3 26 -9 10 -20 32 -24 48 l-8 30 -9 -40 c-4 -22 -9 -49 -9 -60 -2 -24
-16 -35 -45 -35 -13 0 -23 -5 -23 -11 0 -7 12 -8 33 -4 l32 6 -22 -20 c-13
-10 -23 -22 -23 -25 0 -10 35 6 48 22 18 23 15 1 -4 -26 -19 -27 -29 -28 -61
-2 -34 27 -43 17 -13 -15 15 -16 19 -25 10 -25 -8 0 -52 38 -99 84 -64 62
-103 91 -152 114 -53 24 -75 41 -107 83 -22 30 -51 65 -66 78 l-26 24 57 61
c76 80 99 95 173 107 68 11 130 38 165 73 14 14 38 70 60 137 39 122 62 163
52 94 -4 -22 -9 -66 -13 -97 -4 -32 -11 -58 -15 -58 -5 0 -9 -16 -9 -35 0 -19
-4 -35 -10 -35 -5 0 -10 -5 -10 -11 0 -5 4 -8 9 -5 5 3 12 -11 16 -32 4 -20
11 -40 17 -43 7 -5 7 -13 -1 -25 -6 -11 -11 -13 -11 -6 0 7 -4 10 -10 7 -14
-8 -13 -75 1 -75 7 0 9 -10 5 -25 -4 -14 -2 -25 3 -25 5 0 12 8 14 18 4 16 5
16 6 0 0 -10 5 -18 9 -18 5 0 6 -14 4 -31 l-5 -32 21 21 c11 11 22 28 25 39 3
10 5 2 6 -17 1 -27 4 -31 11 -20 8 12 10 10 10 -10 0 -14 9 -33 19 -42 18 -15
20 -15 26 5 5 16 8 18 11 7 3 -8 16 -20 29 -27 36 -16 33 5 -7 48 -18 19 -43
53 -54 74 -110 202 -115 222 -89 356 27 138 8 327 -40 414 -25 45 -27 56 -21
108 5 35 22 86 44 129 32 63 45 77 92 105 30 18 60 32 66 33 5 0 20 -20 31
-44 15 -31 39 -55 80 -82 63 -43 90 -85 139 -224 14 -41 48 -121 74 -178 l49
-102 105 -49 c130 -61 171 -101 230 -225 41 -87 47 -95 110 -135 68 -45 80
-59 245 -293 85 -120 108 -139 184 -153 62 -12 98 -44 147 -132 25 -44 52 -89
60 -99 28 -33 112 -94 128 -94 12 1 8 7 -13 23 -71 52 -114 101 -164 187 -56
95 -73 109 -151 129 -81 21 -102 34 -134 81 -45 67 -134 193 -185 262 -24 32
-69 76 -100 97 -72 49 -81 61 -121 148 l-33 73 27 35 c15 19 41 42 59 51 46
24 111 81 131 115 15 25 19 27 32 15 8 -8 14 -30 15 -48 1 -31 1 -31 9 -8 8
24 8 24 9 3 1 -15 6 -21 15 -17 7 3 16 -2 20 -11 3 -10 12 -15 21 -11 10 3 17
-3 21 -22 4 -15 11 -32 16 -38 9 -13 1 -44 -13 -44 -5 0 -10 -15 -10 -32 l-1
-33 -8 30 c-6 23 -8 25 -9 8 -2 -35 -12 -52 -27 -46 -8 3 -14 -1 -14 -11 0 -9
-6 -13 -14 -10 -8 3 -16 -3 -19 -15 -3 -12 -1 -21 4 -21 5 0 9 6 9 13 0 9 2 9
9 -1 6 -10 10 -10 21 2 7 9 16 13 21 10 5 -3 13 5 18 18 6 13 10 16 11 8 0
-13 1 -13 10 0 8 13 10 12 10 -3 0 -14 5 -17 20 -12 11 3 29 3 41 0 16 -5 19
-12 15 -31 -4 -14 -2 -24 4 -24 5 0 10 -13 10 -30 0 -16 5 -30 10 -30 6 0 10
-14 10 -31 0 -17 4 -28 10 -24 6 4 10 -7 10 -27 0 -22 3 -29 9 -19 6 9 11 10
15 2 4 -6 11 -9 16 -6 4 3 6 -4 3 -15 -4 -14 0 -20 11 -20 8 0 18 -11 22 -25
3 -14 10 -22 15 -19 5 3 9 -9 9 -26 0 -18 4 -29 10 -25 5 3 12 -12 16 -35 6
-37 24 -67 24 -40 0 23 24 3 36 -31 11 -31 13 -32 14 -9 1 14 4 19 7 12 6 -17
48 -62 57 -62 19 0 -135 262 -189 321 -55 59 -57 64 -94 202 -45 168 -55 189
-103 218 -78 46 -94 67 -106 147 -11 74 -7 143 8 172 10 19 141 70 178 70 17
0 33 -17 67 -71 33 -51 55 -74 81 -85 24 -10 48 -35 79 -82 25 -37 57 -82 70
-101 32 -44 33 -103 1 -179 -61 -145 -55 -185 31 -234 39 -22 70 -51 106 -100
29 -38 53 -64 55 -59 6 17 -78 121 -120 149 -67 45 -98 78 -98 107 0 15 13 59
29 98 15 40 31 94 35 121 l8 48 76 -6 c136 -12 140 -14 181 -70 21 -28 59 -68
84 -89 45 -37 160 -198 160 -224 0 -16 19 -17 35 -1 18 18 15 1 -5 -29 -9 -14
-31 -35 -48 -45 -22 -15 -24 -18 -7 -13 15 4 22 2 22 -8 0 -8 -10 -18 -22 -22
-21 -7 -20 -8 11 -14 l34 -6 -28 -33 c-38 -45 -27 -49 18 -6 43 42 48 36 11
-13 -25 -32 -21 -45 6 -20 12 10 12 9 0 -6 -9 -13 -21 -16 -38 -12 -17 4 -23
2 -20 -7 13 -37 -101 -45 -129 -10 -20 24 -15 37 5 19 10 -10 26 -17 36 -17
13 0 11 6 -11 26 -19 17 -24 27 -15 31 9 3 5 12 -13 29 -31 28 -35 29 -35 8 0
-25 -33 -74 -50 -74 -9 0 -16 -10 -16 -24 -2 -23 -1 -23 26 -8 16 9 32 13 37
8 10 -10 -25 -36 -60 -43 -48 -10 -45 -27 4 -20 l44 6 -32 -29 c-20 -18 -27
-31 -20 -34 7 -2 -1 -5 -18 -6 -28 -1 -28 -2 -8 -10 12 -5 34 -7 50 -4 l28 4
-25 -15 c-14 -8 -33 -14 -43 -15 -10 0 -16 -4 -12 -9 3 -6 18 -6 37 0 37 10
46 5 28 -16 -7 -8 -27 -15 -44 -15 -28 -1 -29 -2 -14 -14 13 -10 15 -15 6 -24
-9 -9 -7 -12 10 -12 36 0 25 -18 -18 -31 -22 -7 -40 -16 -40 -21 0 -11 43 -1
99 23 32 14 40 15 32 5 -7 -8 -26 -18 -42 -21 -45 -10 -36 -29 10 -21 l40 6 3
-57 c4 -71 22 -72 26 -3 3 50 3 50 25 35 12 -8 31 -15 42 -15 17 0 15 3 -10
18 -32 20 -74 64 -45 47 8 -4 23 -15 33 -23 9 -8 20 -12 24 -8 4 4 1 11 -7 16
-10 7 -11 10 -2 10 6 0 12 5 12 10 0 6 -6 10 -13 10 -7 0 -22 7 -33 14 -16 13
-13 13 25 0 48 -16 68 -11 28 7 -15 7 -24 16 -21 20 3 5 -5 10 -18 10 -13 1
-6 5 17 9 27 5 32 8 15 9 -14 1 -32 6 -40 12 -11 8 -5 9 25 4 28 -4 36 -3 25
4 -21 14 -12 18 63 24 l67 5 0 -64 c0 -35 4 -64 9 -64 13 0 21 55 14 90 l-6
31 43 -7 c31 -5 41 -4 36 4 -4 7 -1 12 8 12 9 0 16 -4 16 -9 0 -6 17 -7 38 -4
26 4 34 2 27 -5 -5 -6 -35 -12 -65 -14 l-55 -4 54 -8 55 -9 -30 -23 c-20 -17
-24 -24 -13 -24 9 0 28 9 42 20 14 11 28 20 31 20 3 0 6 -25 6 -55 0 -43 3
-55 15 -55 13 0 15 9 9 50 -7 51 2 64 26 35 7 -8 20 -15 28 -15 13 0 12 3 -4
15 -18 14 -17 15 18 11 53 -5 71 11 22 19 -61 11 -76 24 -29 25 22 0 51 8 65
16 25 15 25 15 2 10 -13 -2 -37 0 -54 6 l-31 11 27 14 c37 19 33 23 -22 16
-41 -4 -50 -2 -56 12 -7 18 3 18 48 -1 13 -5 17 -4 12 4 -4 6 8 16 28 23 47
17 36 29 -14 16 -31 -9 -43 -8 -52 2 -11 11 -7 12 22 7 37 -7 35 -3 -17 31
-15 11 -13 12 20 7 24 -4 37 -2 37 5 0 6 -13 11 -29 11 -16 0 -37 7 -45 16
-20 20 -20 28 -1 20 18 -7 18 2 0 34 -8 14 -14 35 -15 48 0 12 -4 22 -10 22
-5 0 -10 -11 -10 -24 0 -13 -9 -35 -21 -50 -12 -15 -16 -26 -9 -26 8 0 7 -9
-5 -26 -16 -25 -16 -25 7 -14 22 11 22 10 4 -4 -26 -21 -70 -22 -62 -1 3 8 1
15 -5 15 -6 0 -7 5 -4 10 3 6 -2 10 -12 10 -10 0 -26 7 -37 15 -17 13 -15 14
20 9 32 -4 36 -3 21 6 -9 6 -15 16 -11 22 4 6 -1 8 -13 4 -12 -4 -25 -1 -33 9
-11 13 -7 15 31 16 l44 1 -39 9 c-46 11 -66 25 -66 46 0 12 9 9 34 -11 41 -31
56 -34 31 -6 -18 20 -18 21 1 35 19 15 19 16 -1 14 -34 -2 -43 0 -49 17 -5 12
-1 14 16 8 21 -6 20 -5 -5 25 -15 18 -27 45 -27 59 -1 26 -1 26 -18 -7 -9 -19
-21 -36 -27 -38 -5 -1 -28 28 -50 65 -22 37 -76 105 -120 151 -44 46 -94 98
-110 116 -28 30 -37 33 -110 39 -129 11 -145 15 -154 39 -5 13 -16 29 -25 36
-8 7 -36 44 -61 82 -30 45 -58 75 -82 87 -24 13 -53 44 -83 88 -27 41 -55 70
-66 72 -30 4 -182 -57 -198 -80 -12 -17 -21 -19 -68 -13 -74 9 -107 -7 -209
-99 -52 -48 -100 -82 -129 -92 -25 -9 -61 -34 -81 -55 -20 -22 -44 -39 -53
-39 -22 0 -55 56 -105 180 -115 283 -132 312 -207 351 -19 10 -43 38 -59 68
-16 28 -33 51 -39 50 -6 -1 -32 -13 -58 -28z m-208 -321 c0 -5 7 -10 15 -10
10 0 15 -11 15 -35 0 -24 5 -35 15 -35 8 0 15 -4 15 -10 0 -5 -4 -10 -10 -10
-5 0 -10 -7 -10 -17 0 -28 -10 -8 -19 38 l-9 44 -1 -37 c-1 -21 -6 -38 -12
-38 -5 0 -7 5 -4 11 7 10 -3 105 -9 97 -2 -1 -6 -16 -10 -33 -5 -22 -4 -26 4
-15 8 13 10 13 10 -1 0 -41 -14 -79 -31 -84 -11 -4 -19 -14 -19 -23 0 -15 -2
-15 -10 -2 -8 12 -10 12 -10 -5 -1 -18 -2 -17 -16 5 l-14 25 2 -25 c3 -21 9
-25 41 -28 32 -3 37 0 37 18 0 17 4 19 24 14 13 -3 27 -1 30 5 4 6 14 11 22
11 10 0 14 -13 15 -47 l2 -48 6 40 6 40 7 -40 c3 -22 9 -49 14 -59 5 -14 4
-17 -4 -12 -7 4 -12 1 -12 -8 0 -9 -4 -16 -9 -16 -5 0 -12 -12 -16 -27 -6 -27
-7 -27 -21 -9 -8 11 -14 15 -14 9 0 -12 -28 -25 -43 -20 -5 1 -13 -6 -18 -15
-6 -10 -18 -18 -28 -18 -10 0 -23 -10 -29 -22 -8 -18 -11 -19 -11 -5 -1 22
-15 22 -41 0 -25 -22 -25 -29 0 -36 11 -3 20 -1 20 3 0 5 14 7 30 5 18 -2 30
1 30 7 0 6 2 9 6 6 3 -3 21 -2 40 2 l35 8 -7 -36 c-4 -21 -10 -41 -15 -46 -5
-6 -9 -23 -9 -38 0 -18 -5 -28 -15 -28 -8 0 -16 -10 -17 -22 0 -13 -4 -3 -8
22 -6 38 -7 40 -8 13 -2 -30 -22 -58 -22 -31 -1 7 -8 2 -16 -12 l-15 -25 5 33
c3 18 1 32 -4 32 -6 0 -10 -9 -10 -19 0 -11 -3 -27 -6 -36 -5 -13 -8 -14 -15
-3 -7 10 -9 9 -9 -4 0 -10 -7 -18 -15 -18 -25 0 -29 -2 -54 -21 -13 -11 -30
-19 -37 -19 -8 0 -14 -6 -14 -12 -1 -7 -15 -22 -32 -33 -18 -11 -39 -33 -48
-50 -9 -16 -26 -34 -38 -40 -12 -5 -22 -13 -22 -17 0 -18 -31 -6 -65 23 -29
26 -35 38 -35 73 -1 22 -9 66 -20 96 -11 30 -20 66 -20 80 0 20 -2 22 -10 10
-8 -13 -10 -12 -10 3 0 9 -4 17 -10 17 -5 0 -10 5 -10 11 0 5 4 8 8 5 4 -2 14
9 21 25 7 16 19 29 27 29 8 0 14 9 14 21 0 11 8 23 18 26 9 2 24 18 32 36 8
17 21 33 29 35 8 3 11 0 7 -7 -4 -6 -2 -11 3 -11 6 0 11 12 11 26 0 14 4 23
10 19 6 -3 10 0 10 7 0 9 3 9 10 -2 8 -12 10 -10 10 9 0 13 3 21 7 18 3 -4 12
-2 20 4 7 6 13 8 13 5 0 -4 7 0 16 9 9 9 21 14 28 12 6 -2 26 12 44 32 18 20
32 29 32 20 0 -13 10 2 47 73 18 35 33 44 33 21 0 -10 10 2 22 26 18 37 23 41
29 25 7 -17 8 -17 8 -1 1 25 21 21 22 -5 l2 -23 4 23 c2 12 11 22 19 22 8 0
14 7 14 15 0 8 7 15 15 15 8 0 15 -4 15 -10z m77 -92 c-3 -8 -6 -5 -6 6 -1 11
2 17 5 13 3 -3 4 -12 1 -19z m1032 -16 l-1 -27 -9 25 c-6 16 -7 -9 -5 -73 3
-90 -6 -119 -17 -57 -2 14 -3 6 -2 -18 2 -34 0 -40 -11 -31 -7 6 -15 23 -17
37 -3 21 -4 18 -6 -10 0 -21 4 -38 9 -38 6 0 5 -8 -2 -19 -15 -25 -30 -22 -44
9 -11 23 -11 21 -7 -15 4 -35 1 -43 -25 -67 -17 -14 -33 -24 -36 -21 -3 4 -6
1 -6 -5 0 -18 -18 -14 -53 12 -18 13 -60 38 -95 55 -54 27 -62 34 -51 47 7 8
18 13 26 10 7 -3 13 1 13 9 0 8 7 16 15 16 32 3 36 4 45 19 9 13 10 13 10 0 1
-12 3 -12 14 3 7 9 18 17 25 17 6 0 11 10 12 23 0 20 1 20 8 3 7 -18 9 -17 21
11 8 18 18 29 22 27 4 -3 19 7 32 21 18 20 26 23 32 13 6 -9 10 -5 14 12 9 36
38 38 43 3 4 -27 4 -27 6 4 1 29 16 46 34 36 4 -2 7 -16 6 -31z m31 23 c14 8
16 -80 3 -106 -13 -24 -13 -23 -14 11 l-1 35 -8 -38 c-4 -20 -10 -41 -15 -45
-4 -4 -5 2 -2 13 3 11 9 49 13 85 4 36 9 59 11 52 3 -6 8 -10 13 -7z m17 -127
c-3 -8 -6 -5 -6 6 -1 11 2 17 5 13 3 -3 4 -12 1 -19z m-17 -18 c0 -5 -5 -10
-11 -10 -5 0 -7 5 -4 10 3 6 8 10 11 10 2 0 4 -4 4 -10z m-1106 -200 c-6 -6
-10 -3 -10 10 0 13 4 16 10 10 7 -7 7 -13 0 -20z m1332 -25 c-3 -9 -10 -14
-15 -10 -5 3 -13 -4 -16 -16 -4 -11 -9 -18 -11 -16 -8 8 19 57 27 51 5 -3 9 0
9 7 0 7 3 10 6 6 4 -3 4 -13 0 -22z m-6 -41 c0 -8 -5 -12 -10 -9 -6 4 -8 11
-5 16 9 14 15 11 15 -7z m-2633 -246 c-3 -8 -6 -5 -6 6 -1 11 2 17 5 13 3 -3
4 -12 1 -19z m-30 -40 c-3 -7 -5 -2 -5 12 0 14 2 19 5 13 2 -7 2 -19 0 -25z
m3603 12 c0 -5 -10 -15 -22 -21 -23 -12 -23 -12 -4 10 21 23 26 26 26 11z
m-3699 -57 c-8 -15 -10 -15 -11 -2 0 17 10 32 18 25 2 -3 -1 -13 -7 -23z
m2972 -43 c3 -11 1 -20 -4 -20 -5 0 -9 9 -9 20 0 11 2 20 4 20 2 0 6 -9 9 -20z
m-2756 -62 c-3 -8 -6 -5 -6 6 -1 11 2 17 5 13 3 -3 4 -12 1 -19z m3571 -25
c-10 -2 -26 -2 -35 0 -10 3 -2 5 17 5 19 0 27 -2 18 -5z m-1947 -35 c11 -21
11 -22 -4 -9 -10 7 -17 17 -17 22 0 15 9 10 21 -13z m1824 12 c4 -6 -6 -10
-22 -9 -25 0 -26 1 -8 9 11 5 21 9 22 9 1 1 5 -3 8 -9z m170 -9 l30 -7 -27 -7
c-17 -5 -40 -2 -60 7 l-33 14 30 0 c17 0 44 -3 60 -7z m65 -10 c0 -16 -57 -32
-101 -28 l-44 4 50 2 c28 1 59 8 69 16 23 17 26 18 26 6z m-262 -11 l57 -1
-24 -19 c-13 -11 -32 -20 -44 -20 -11 0 -18 -3 -14 -6 12 -13 -46 -64 -72 -63
-25 1 -25 2 4 9 28 7 28 8 5 9 l-25 2 28 17 c30 18 31 35 1 40 -10 2 -23 8
-29 14 -7 6 0 7 18 3 25 -7 39 7 20 18 -5 2 -2 2 5 0 8 -1 39 -3 70 -3z m-188
-45 c-13 -14 -28 -25 -34 -25 -6 0 3 11 19 25 39 31 45 32 15 0z m250 5 c0
-12 -48 -32 -64 -27 -8 3 31 26 62 36 1 1 2 -4 2 -9z m164 -7 c-10 -7 -25 -11
-32 -8 -8 3 -18 5 -23 5 -5 0 -9 3 -9 8 0 4 18 7 41 8 36 0 39 -1 23 -13z
m-304 -3 c-8 -5 -26 -9 -40 -9 -23 1 -23 2 5 9 43 11 52 11 35 0z m235 -10
c17 -7 15 -9 -12 -9 -17 -1 -35 4 -38 9 -7 12 22 12 50 0z m100 0 c-3 -5 -11
-10 -16 -10 -6 0 -7 5 -4 10 3 6 11 10 16 10 6 0 7 -4 4 -10z m-1625 -20 c0
-5 -5 -10 -11 -10 -5 0 -7 5 -4 10 3 6 8 10 11 10 2 0 4 -4 4 -10z m1408 -11
c-30 -17 -78 -19 -78 -3 0 10 13 14 48 14 37 -1 43 -3 30 -11z m177 1 c4 -6
-5 -10 -20 -10 -15 0 -24 4 -20 10 3 6 12 10 20 10 8 0 17 -4 20 -10z m-55
-10 c0 -13 -30 -13 -50 0 -11 7 -7 10 18 10 17 0 32 -4 32 -10z m186 -15 c18
-13 18 -14 -4 -8 -12 3 -25 9 -28 14 -8 14 10 11 32 -6z m-2411 -25 c3 -5 1
-10 -4 -10 -6 0 -11 5 -11 10 0 6 2 10 4 10 3 0 8 -4 11 -10z m30 -40 c-3 -5
-14 -10 -23 -10 -15 0 -15 2 -2 10 20 13 33 13 25 0z m1855 -10 c-20 -13 -57
-13 -44 -1 10 10 46 19 54 14 2 -2 -2 -8 -10 -13z m-1355 0 c-3 -5 -10 -10
-16 -10 -5 0 -9 5 -9 10 0 6 7 10 16 10 8 0 12 -4 9 -10z m170 0 c-3 -5 -14
-10 -23 -10 -15 0 -15 2 -2 10 20 13 33 13 25 0z m-255 -30 c-8 -5 -25 -10
-37 -10 -12 0 -24 -4 -27 -9 -3 -5 -16 -7 -28 -3 -19 5 -17 7 17 18 51 15 97
18 75 4z m-500 -10 c12 -8 12 -10 -3 -16 -20 -7 -47 1 -47 16 0 12 30 13 50 0z
m848 3 c-10 -2 -28 -2 -40 0 -13 2 -5 4 17 4 22 1 32 -1 23 -4z m93 -23 c-13
-11 -29 -21 -37 -21 -8 -1 -20 -2 -26 -3 -7 -1 -17 1 -23 5 -5 4 -19 9 -30 13
-11 3 3 3 30 1 32 -3 59 1 75 10 35 20 39 18 11 -5z m-851 -10 c0 -5 -4 -10
-9 -10 -6 0 -13 5 -16 10 -3 6 1 10 9 10 9 0 16 -4 16 -10z m350 -4 c-30 -14
-24 -23 13 -20 31 3 31 3 -8 -11 -22 -7 -60 -13 -85 -13 l-45 1 45 6 45 6 -37
13 c-60 21 -53 29 22 28 51 -1 65 -3 50 -10z m80 4 c0 -5 -8 -10 -17 -10 -15
0 -16 2 -3 10 19 12 20 12 20 0z m-312 -18 c-10 -2 -18 -8 -18 -13 0 -6 9 -8
20 -5 11 3 30 8 43 12 l22 5 -24 -20 c-28 -25 -54 -27 -75 -5 -9 8 -24 14 -33
13 -32 -3 -44 1 -37 12 3 6 17 9 30 6 14 -2 27 -1 29 3 2 4 17 5 32 2 19 -4
23 -7 11 -10z m493 8 c29 0 14 -17 -21 -25 -17 -4 -30 -11 -30 -17 0 -10 27
-7 65 7 19 8 19 7 2 -11 -18 -19 -77 -29 -77 -13 0 5 -9 9 -19 9 -10 0 -29 9
-42 21 l-24 20 27 -5 c14 -3 33 -9 42 -12 9 -3 16 -1 16 5 0 6 -6 11 -12 12
-7 0 -4 4 7 9 11 5 26 7 33 4 8 -2 23 -4 33 -4z m254 -10 c-10 -11 -26 -20
-37 -20 -10 0 -18 -3 -18 -7 0 -5 -11 -13 -25 -20 -27 -12 -33 -5 -13 15 9 9
4 12 -25 12 -20 0 -37 5 -37 10 0 7 17 8 48 4 32 -4 58 -1 82 9 46 20 46 20
25 -3z m72 -6 c-3 -3 -12 -4 -19 -1 -8 3 -5 6 6 6 11 1 17 -2 13 -5z m-853
-56 c-3 -4 -15 -8 -27 -8 -16 0 -19 3 -8 9 7 5 10 14 6 21 -5 8 -1 8 13 -1 12
-7 18 -17 16 -21z m301 15 c-11 -7 -25 -11 -32 -9 -7 3 -13 2 -13 -3 0 -16
-39 -19 -57 -5 -17 13 -17 13 4 14 12 0 24 4 27 9 3 4 24 8 47 8 39 0 41 -1
24 -14z m502 11 c-3 -3 -12 -4 -19 -1 -8 3 -5 6 6 6 11 1 17 -2 13 -5z m-850
-10 c-3 -3 -12 -4 -19 -1 -8 3 -5 6 6 6 11 1 17 -2 13 -5z m448 -4 c3 -6 -1
-7 -9 -4 -18 7 -21 14 -7 14 6 0 13 -4 16 -10z m250 0 c3 -5 -3 -10 -14 -10
-12 0 -21 5 -21 10 0 6 6 10 14 10 8 0 18 -4 21 -10z m140 -22 c7 -7 -5 -9
-35 -5 -25 3 -39 4 -32 1 24 -11 11 -19 -34 -21 -53 -3 -50 5 9 29 42 17 73
15 92 -4z m-725 -15 c-34 -24 -120 -29 -145 -8 -19 16 -18 16 20 12 22 -3 49
-1 60 3 11 5 36 9 55 9 l34 1 -24 -17z m725 -62 c-3 -6 -14 -11 -23 -11 -13 0
-13 2 4 14 21 15 30 14 19 -3z m-449 -36 c-11 -8 -25 -15 -30 -15 -6 1 0 7 14
15 32 19 40 18 16 0z"/>
<path d="M2086 3625 c-3 -10 -3 -22 3 -28 12 -12 20 4 11 27 -6 19 -7 19 -14
1z"/>
<path d="M1990 3371 c0 -6 -7 -8 -15 -5 -8 4 -15 2 -15 -3 0 -13 50 -11 51 2
0 5 -4 11 -10 13 -6 2 -11 -1 -11 -7z"/>
<path d="M1820 3280 c0 -5 5 -10 10 -10 6 0 10 5 10 10 0 6 -4 10 -10 10 -5 0
-10 -4 -10 -10z"/>
<path d="M1670 3255 c0 -22 4 -25 30 -23 25 2 30 6 29 28 0 14 -3 20 -5 13 -4
-8 -13 -9 -30 -3 -21 9 -24 7 -24 -15z"/>
<path d="M1743 3265 c-7 -20 6 -34 16 -17 4 7 18 14 29 15 34 2 26 17 -8 17
-18 0 -33 -6 -37 -15z"/>
<path d="M3210 3535 c0 -14 4 -25 9 -25 4 0 6 11 3 25 -2 14 -6 25 -8 25 -2 0
-4 -11 -4 -25z"/>
<path d="M3238 3520 c2 -22 6 -40 8 -40 2 0 4 18 4 40 0 22 -3 40 -8 40 -4 0
-6 -18 -4 -40z"/>
<path d="M3170 3503 c0 -15 -2 -16 -10 -3 -7 11 -10 11 -10 2 0 -7 -4 -10 -10
-7 -5 3 -10 2 -10 -4 0 -5 -8 -12 -17 -14 -16 -4 -16 -5 -1 -6 9 0 19 -9 21
-18 3 -13 5 -12 6 5 1 19 4 21 19 13 25 -13 46 2 37 28 -8 25 -25 28 -25 4z"/>
<path d="M2493 4055 c10 -35 57 -89 57 -66 0 6 -6 14 -14 17 -8 3 -22 23 -30
45 -20 48 -28 51 -13 4z"/>
<path d="M2473 3913 c-7 -2 -13 -9 -13 -15 0 -7 4 -7 13 0 6 5 21 12 32 15
l20 5 -20 0 c-11 0 -26 -2 -32 -5z"/>
<path d="M2605 3905 c4 -11 15 -46 23 -77 9 -32 19 -58 23 -58 10 0 -29 132
-42 144 -9 8 -10 6 -4 -9z"/>
<path d="M3650 3753 c0 -4 5 -15 10 -23 8 -13 10 -13 10 2 0 9 -4 20 -10 23
-5 3 -10 3 -10 -2z"/>
<path d="M3696 3638 c10 -14 21 -24 23 -22 3 3 -6 15 -18 27 l-24 22 19 -27z"/>
<path d="M1355 3555 c19 -18 25 -35 25 -68 0 -41 18 -113 26 -104 2 2 -3 41
-11 88 -10 54 -21 88 -32 97 -29 21 -33 13 -8 -13z"/>
<path d="M3753 3562 c22 -24 46 -94 56 -162 8 -52 9 -53 10 -14 2 70 -44 194
-72 194 -5 0 -3 -8 6 -18z"/>
<path d="M1270 3516 c0 -2 7 -7 16 -10 8 -3 12 -2 9 4 -6 10 -25 14 -25 6z"/>
<path d="M1211 3476 c-9 -11 -10 -20 -1 -35 6 -12 13 -21 16 -21 2 0 0 9 -7
21 -12 23 -5 34 26 42 19 4 19 5 -1 6 -12 0 -27 -5 -33 -13z"/>
<path d="M1311 3468 c0 -10 -9 -18 -18 -18 -17 -1 -17 -1 0 -11 23 -14 30 -7
24 23 -3 14 -5 16 -6 6z"/>
<path d="M2436 3423 c5 -38 2 -64 -10 -93 -9 -22 -16 -48 -15 -58 0 -9 9 3 19
28 21 49 26 136 10 160 -7 10 -9 -1 -4 -37z"/>
<path d="M1053 3438 c-23 -30 -24 -41 -2 -21 12 12 20 25 17 28 -3 3 -10 0
-15 -7z"/>
<path d="M2743 3410 c12 -22 23 -35 25 -30 4 12 -26 70 -37 70 -5 0 0 -18 12
-40z"/>
<path d="M1200 3396 c0 -2 15 -13 34 -24 19 -11 36 -31 39 -44 4 -21 4 -20 6
4 1 23 -6 31 -39 48 -22 11 -40 19 -40 16z"/>
<path d="M1295 3380 c10 -11 20 -20 23 -20 3 0 -3 9 -13 20 -10 11 -20 20 -23
20 -3 0 3 -9 13 -20z"/>
<path d="M4115 3366 c14 -14 25 -30 25 -36 0 -5 4 -10 10 -10 16 0 -25 65 -44
68 -12 3 -10 -3 9 -22z"/>
<path d="M997 3373 c-3 -4 -8 -26 -11 -48 l-6 -40 15 44 c13 41 14 64 2 44z"/>
<path d="M1162 3330 c0 -14 2 -19 5 -12 2 6 2 18 0 25 -3 6 -5 1 -5 -13z"/>
<path d="M2990 3325 c0 -11 43 -90 58 -107 8 -10 20 -18 25 -18 6 0 1 10 -10
23 -11 12 -30 41 -42 65 -19 38 -31 52 -31 37z"/>
<path d="M1305 3310 c-3 -5 -1 -10 4 -10 6 0 11 5 11 10 0 6 -2 10 -4 10 -3 0
-8 -4 -11 -10z"/>
<path d="M1228 3303 c6 -2 18 -2 25 0 6 3 1 5 -13 5 -14 0 -19 -2 -12 -5z"/>
<path d="M1457 3288 c11 -13 25 -32 31 -43 9 -16 11 -17 12 -4 0 20 -37 69
-52 69 -7 0 -2 -10 9 -22z"/>
<path d="M1186 3285 c6 -14 72 -30 82 -21 3 3 -3 6 -14 6 -10 0 -31 6 -46 14
-21 11 -26 11 -22 1z"/>
<path d="M4180 3280 c0 -5 5 -10 11 -10 5 0 7 5 4 10 -3 6 -8 10 -11 10 -2 0
-4 -4 -4 -10z"/>
<path d="M1540 3263 c0 -5 7 -17 15 -27 8 -11 15 -31 16 -45 0 -14 5 -35 10
-46 6 -14 7 -6 3 25 -4 25 -13 57 -20 73 -14 26 -24 35 -24 20z"/>
<path d="M3952 3215 c0 -16 2 -22 5 -12 2 9 2 23 0 30 -3 6 -5 -1 -5 -18z"/>
<path d="M3370 3210 c-13 -9 -13 -11 0 -20 15 -10 25 0 18 20 -2 6 -8 6 -18 0z"/>
<path d="M3711 3191 c-1 -21 37 -97 57 -113 12 -10 11 -4 -5 22 -12 19 -28 51
-36 70 -9 19 -16 29 -16 21z"/>
<path d="M1141 3144 c0 -11 3 -14 6 -6 3 7 2 16 -1 19 -3 4 -6 -2 -5 -13z"/>
<path d="M3110 3142 c6 -13 14 -21 18 -18 3 4 -2 14 -12 24 -18 16 -18 16 -6
-6z"/>
<path d="M2410 3137 c0 -13 83 -137 88 -132 5 5 -39 82 -67 115 -11 14 -20 21
-21 17z"/>
<path d="M4356 3103 c16 -37 34 -64 34 -50 0 11 -39 87 -45 87 -2 0 3 -17 11
-37z"/>
<path d="M4047 3108 c18 -13 40 -40 49 -61 15 -32 55 -81 43 -52 -20 48 -65
115 -85 124 -39 17 -42 13 -7 -11z"/>
<path d="M1185 3063 c8 -16 17 -37 21 -48 3 -11 8 -15 11 -8 6 15 -23 83 -36
83 -6 0 -4 -12 4 -27z"/>
<path d="M3160 3073 c0 -4 5 -15 10 -23 8 -13 10 -13 10 2 0 9 -4 20 -10 23
-5 3 -10 3 -10 -2z"/>
<path d="M2222 3053 c-7 -7 -22 -13 -32 -13 -11 0 -20 -5 -20 -11 0 -6 -9 -9
-20 -6 -11 3 -20 1 -20 -3 0 -10 68 -21 95 -16 11 3 28 5 38 5 12 1 17 9 17
34 0 24 -3 28 -10 17 -5 -8 -10 -10 -10 -4 0 15 -23 13 -38 -3z"/>
<path d="M3081 3057 c-2 -17 29 -64 63 -96 47 -46 46 -30 -1 24 -21 23 -43 50
-50 61 -6 10 -12 15 -12 11z"/>
<path d="M4415 3010 c3 -5 8 -10 11 -10 2 0 4 5 4 10 0 6 -5 10 -11 10 -5 0
-7 -4 -4 -10z"/>
<path d="M3860 2955 c12 -22 39 -60 61 -85 47 -52 36 -22 -13 37 -18 21 -41
50 -51 64 -13 17 -12 13 3 -16z"/>
<path d="M1230 2950 c0 -5 5 -10 11 -10 5 0 7 5 4 10 -3 6 -8 10 -11 10 -2 0
-4 -4 -4 -10z"/>
<path d="M711 2924 c0 -11 3 -14 6 -6 3 7 2 16 -1 19 -3 4 -6 -2 -5 -13z"/>
<path d="M1791 2907 c15 -12 32 -31 38 -42 8 -16 10 -16 11 -4 0 18 -47 69
-64 69 -6 0 1 -10 15 -23z"/>
<path d="M3210 2896 c0 -2 8 -10 18 -17 15 -13 16 -12 3 4 -13 16 -21 21 -21
13z"/>
<path d="M3736 2860 l-8 -35 -11 25 c-16 34 -47 34 -47 1 0 -10 45 -27 93 -35
22 -4 27 -1 27 15 0 11 -4 17 -10 14 -5 -3 -10 2 -10 12 0 14 -2 15 -9 4 -7
-11 -10 -9 -13 10 -3 21 -5 19 -12 -11z"/>
<path d="M3630 2871 c0 -6 5 -13 10 -16 6 -3 10 1 10 9 0 9 -4 16 -10 16 -5 0
-10 -4 -10 -9z"/>
<path d="M600 2840 c0 -5 5 -10 10 -10 6 0 10 5 10 10 0 6 -4 10 -10 10 -5 0
-10 -4 -10 -10z"/>
<path d="M540 2830 c0 -5 -3 -9 -7 -7 -8 2 -13 -6 -13 -18 0 -3 9 -1 20 5 21
11 27 30 10 30 -5 0 -10 -4 -10 -10z"/>
<path d="M1490 2804 c0 -5 7 -17 15 -28 7 -10 22 -43 31 -72 9 -30 19 -52 22
-49 10 9 -31 124 -50 141 -10 10 -18 13 -18 8z"/>
<path d="M1807 2735 c20 -25 39 -45 40 -45 11 0 -2 25 -28 55 -46 51 -57 43
-12 -10z"/>
<path d="M222 2644 c-7 -8 -12 -21 -10 -28 2 -10 8 -7 21 9 19 26 10 41 -11
19z"/>
<path d="M183 2618 c-4 -7 -15 -13 -23 -13 -8 0 -16 -7 -18 -16 -1 -9 4 -16
13 -16 8 0 15 4 15 8 0 5 7 6 15 3 11 -5 15 1 15 20 0 29 -5 33 -17 14z"/>
<path d="M442 2600 c0 -14 2 -19 5 -12 2 6 2 18 0 25 -3 6 -5 1 -5 -13z"/>
<path d="M1884 2604 c5 -10 12 -33 17 -51 7 -21 25 -42 54 -62 25 -17 45 -26
45 -20 0 5 -15 19 -34 30 -24 14 -40 35 -52 65 -9 25 -22 47 -27 51 -7 4 -8
-1 -3 -13z"/>
<path d="M1620 2569 c0 -17 130 -202 137 -195 2 2 -16 35 -41 72 -45 71 -95
134 -96 123z"/>
<path d="M1121 2496 c0 -12 -6 -16 -16 -12 -11 4 -15 -1 -15 -17 0 -16 -3 -19
-9 -8 -7 11 -10 9 -16 -9 -4 -12 -2 -27 4 -33 8 -8 11 -7 11 3 0 7 3 11 6 7 3
-3 15 2 26 13 13 12 18 27 15 46 -2 16 -5 21 -6 10z"/>
<path d="M1042 2410 c0 -14 2 -19 5 -12 2 6 2 18 0 25 -3 6 -5 1 -5 -13z"/>
<path d="M1421 2334 c0 -11 3 -14 6 -6 3 7 2 16 -1 19 -3 4 -6 -2 -5 -13z"/>
<path d="M1603 2070 c-105 -25 -157 -138 -100 -220 36 -54 69 -73 124 -72 26
0 78 1 116 2 l67 0 0 116 0 115 33 -3 32 -3 0 -113 0 -112 38 0 37 0 0 115 0
115 35 0 c32 0 35 2 35 30 l0 30 -140 0 c-77 0 -140 -4 -140 -9 0 -5 -21 -3
-47 5 -25 8 -49 14 -52 13 -3 -1 -21 -4 -38 -9z m136 -157 c-1 -98 -2 -103
-17 -81 -8 13 -16 24 -17 26 -2 1 -14 -2 -28 -9 -53 -24 -117 16 -117 74 0 59
63 95 127 74 17 -6 23 -3 28 13 14 46 25 3 24 -97z"/>
<path d="M2119 2070 c-71 -21 -109 -70 -109 -145 0 -80 46 -138 118 -149 95
-16 172 52 172 151 0 94 -94 168 -181 143z m75 -81 c21 -16 26 -29 26 -63 0
-88 -87 -120 -125 -45 -22 42 -18 67 14 100 35 34 49 36 85 8z"/>
<path d="M2383 2072 c-32 -5 -63 -49 -63 -87 0 -25 8 -40 31 -59 17 -14 35
-26 41 -26 19 0 47 -31 41 -46 -7 -18 -41 -18 -77 1 -36 19 -31 20 -46 -16
-15 -36 -9 -42 53 -59 71 -20 131 4 147 61 13 46 -5 77 -64 108 -27 14 -51 32
-54 38 -6 19 27 28 60 15 26 -9 30 -8 43 18 11 22 12 31 3 36 -16 10 -88 20
-115 16z"/>
<path d="M4269 2070 c-41 -11 -79 -40 -96 -74 -11 -22 -18 -26 -21 -16 -7 23
-44 60 -74 76 -15 8 -54 14 -88 14 l-60 0 0 -145 0 -145 66 0 c36 0 75 5 87
12 24 12 61 49 71 70 5 11 7 11 12 0 53 -114 223 -118 270 -6 30 71 7 159 -51
195 -28 17 -85 27 -116 19z m-204 -91 c30 -29 26 -86 -9 -115 -48 -42 -56 -34
-56 62 0 84 0 85 23 79 12 -4 31 -16 42 -26z m279 10 c52 -41 24 -149 -38
-149 -70 0 -98 98 -43 146 34 29 47 30 81 3z"/>
<path d="M598 1925 l-3 -145 38 0 37 0 0 50 c0 41 3 50 18 50 43 0 93 22 107
48 13 26 14 22 15 -60 l0 -88 85 0 85 0 0 30 c0 29 -1 30 -50 30 -47 0 -50 2
-50 25 0 23 3 25 51 25 l50 0 -3 33 c-3 31 -5 32 -50 35 -43 3 -48 5 -48 28 0
22 4 24 49 24 47 0 49 1 53 30 l5 30 -89 0 -88 0 -1 -42 c-1 -27 -4 -33 -6
-17 -6 39 -50 59 -132 59 l-70 0 -3 -145z m126 62 c9 -15 7 -21 -8 -33 -31
-22 -46 -17 -46 14 0 16 3 32 7 36 11 11 35 2 47 -17z"/>
<path d="M999 2038 c0 -18 -1 -84 -2 -146 l-2 -114 75 4 c85 4 118 21 144 76
21 42 20 92 -1 137 -22 47 -81 75 -156 75 l-57 0 -1 -32z m145 -73 c13 -35 6
-75 -19 -100 -45 -44 -55 -35 -55 53 0 43 3 81 6 85 10 9 61 -20 68 -38z"/>
<path d="M1317 2058 c-40 -94 -107 -264 -107 -270 0 -4 16 -8 35 -8 28 0 37 5
49 28 13 25 19 28 63 26 42 -2 49 -5 57 -28 9 -22 16 -26 52 -26 l42 0 -59
142 c-32 78 -59 143 -59 145 0 10 -69 1 -73 -9z m63 -154 c0 -2 -11 -4 -25 -4
-29 0 -28 -2 -14 40 l12 32 13 -32 c8 -18 14 -34 14 -36z"/>
<path d="M2600 1925 l0 -145 65 0 c39 0 78 6 95 15 33 17 66 60 73 95 2 14 5
-5 6 -42 l1 -68 85 0 85 0 0 30 c0 29 -1 30 -50 30 -46 0 -50 2 -50 24 0 23 5
25 48 28 45 3 47 4 47 33 0 27 -3 30 -35 32 -19 1 -41 2 -48 2 -8 1 -12 10
-10 24 3 19 10 22 51 25 45 3 47 5 47 33 l0 29 -85 0 -85 0 -1 -67 c0 -49 -3
-61 -8 -42 -23 75 -77 108 -173 109 l-58 0 0 -145z m140 47 c28 -35 25 -69 -9
-103 -50 -50 -61 -41 -61 49 0 43 3 81 6 84 10 11 45 -5 64 -30z"/>
<path d="M3106 1983 c-4 -48 -9 -114 -13 -145 l-6 -58 36 0 35 0 8 77 7 77 27
-74 c24 -65 31 -75 51 -75 21 0 28 10 50 75 l27 75 7 -77 7 -78 37 0 c37 0 37
0 34 38 -2 20 0 30 3 22 23 -55 94 -82 159 -60 57 19 65 39 65 172 l0 118 -35
0 -35 0 0 -105 c0 -104 0 -106 -26 -117 -23 -11 -29 -10 -45 11 -16 19 -19 40
-19 117 l0 94 -35 0 -35 0 -1 -102 c-1 -116 -5 -112 -14 15 l-7 87 -38 0 -37
0 -29 -75 c-16 -41 -32 -71 -36 -67 -4 4 -18 36 -31 72 -24 64 -26 65 -64 68
l-40 3 -7 -88z"/>
<path d="M3660 1925 l0 -145 35 0 34 0 3 80 3 80 52 -80 c50 -75 55 -80 88
-80 l35 0 0 145 0 145 -35 0 -35 0 0 -75 c0 -41 -3 -75 -7 -75 -9 0 -78 104
-88 133 -5 12 -18 17 -46 17 l-39 0 0 -145z"/>
<path d="M4906 1849 c-9 -58 -6 -420 4 -444 6 -13 9 -15 10 -5 0 11 4 10 12
-4 8 -15 8 -21 0 -24 -7 -2 -12 -11 -12 -20 1 -15 2 -15 14 1 14 18 14 18 19
0 3 -10 4 0 2 22 -2 22 -2 32 1 23 3 -11 15 -18 30 -18 l24 0 0 255 0 255 -49
0 -48 0 -7 -41z"/>
<path d="M675 1585 c-55 -41 -145 -106 -200 -145 -55 -39 -112 -80 -127 -92
l-26 -20 -39 28 c-21 16 -42 33 -48 37 -33 25 -229 167 -232 167 -2 0 -3 -49
-3 -108 l0 -108 77 -54 c43 -30 85 -60 93 -67 8 -7 46 -35 84 -63 l69 -50 31
23 c17 13 56 41 86 62 30 21 57 41 60 45 3 3 21 17 40 30 19 13 37 27 40 30 3
4 28 22 55 40 28 19 52 37 53 42 2 4 10 8 18 8 8 0 14 3 14 8 0 4 16 18 35 30
26 18 37 21 47 12 55 -47 418 -311 435 -316 17 -5 62 24 208 133 102 76 203
150 225 166 l39 28 103 -77 c57 -41 114 -84 128 -94 172 -129 217 -160 230
-160 16 0 53 23 78 47 8 7 44 34 80 60 37 26 69 50 72 53 3 4 27 21 53 39 27
18 63 45 80 60 18 15 48 37 67 49 l36 21 91 -67 c50 -37 103 -77 119 -89 16
-12 78 -58 137 -102 l108 -80 58 42 c32 23 96 69 142 102 46 32 86 62 89 65 3
3 43 34 89 68 l84 64 28 -21 c16 -12 44 -32 62 -44 48 -33 271 -199 277 -206
13 -15 88 -61 99 -61 7 0 27 12 45 26 17 14 79 60 138 102 59 42 145 105 192
140 l85 62 73 -53 c88 -63 237 -174 258 -190 40 -32 82 -59 86 -55 8 9 11 208
2 208 -4 0 -87 59 -183 131 -97 71 -190 139 -208 149 l-33 20 -50 -38 c-57
-42 -187 -136 -316 -229 -48 -35 -91 -63 -96 -63 -5 0 -17 9 -27 20 -10 11
-23 20 -29 20 -7 0 -18 9 -26 20 -8 11 -20 20 -26 20 -7 0 -14 4 -16 8 -1 5
-25 23 -53 42 -27 19 -54 38 -60 43 -5 5 -55 42 -110 82 -112 83 -114 84 -185
26 -25 -20 -63 -49 -85 -64 -22 -15 -67 -48 -100 -72 -33 -25 -86 -64 -119
-87 -32 -24 -64 -47 -71 -52 -8 -6 -73 35 -201 129 -104 75 -206 151 -227 167
-21 16 -44 27 -52 24 -8 -3 -50 -31 -92 -63 -105 -77 -225 -166 -238 -176 -49
-38 -120 -87 -125 -87 -4 0 -58 38 -121 85 -63 47 -123 92 -134 99 -11 8 -53
39 -94 68 -40 29 -82 59 -92 66 -22 17 -28 14 -184 -102 -66 -49 -147 -109
-180 -133 -33 -24 -67 -50 -75 -57 -9 -7 -21 -15 -27 -19 -13 -8 -63 12 -63
24 0 4 -8 10 -17 13 -10 4 -34 20 -53 37 -19 17 -47 38 -62 47 -15 9 -28 20
-28 24 0 4 -6 8 -14 8 -8 0 -16 4 -18 8 -2 4 -25 23 -53 42 -27 19 -56 40 -65
47 -8 7 -32 26 -54 43 -21 16 -44 30 -50 30 -6 -1 -56 -34 -111 -75z"/>
<path d="M1694 1257 c-18 -10 -103 -73 -134 -100 -8 -7 -27 -18 -41 -26 -15
-7 -37 -23 -50 -35 -13 -12 -46 -37 -74 -56 -27 -19 -52 -37 -55 -40 -3 -3
-24 -20 -47 -37 l-42 -33 -59 43 c-95 66 -204 146 -236 170 -154 118 -174 129
-198 107 -7 -6 -60 -45 -118 -86 -125 -88 -116 -81 -161 -119 -20 -16 -46 -37
-59 -45 -12 -8 -35 -25 -50 -37 -44 -36 -58 -32 -170 58 -25 20 -80 62 -122
93 l-78 57 0 -103 1 -103 62 -44 c34 -25 69 -51 77 -58 35 -31 137 -106 163
-119 25 -13 30 -13 60 8 17 13 34 26 37 29 3 3 32 25 65 50 33 24 62 47 63 52
2 4 9 7 15 7 7 0 18 9 25 20 7 11 19 20 26 20 8 0 16 3 18 8 5 12 86 72 97 72
6 0 11 4 11 8 0 5 18 18 40 31 22 12 40 19 40 14 0 -5 18 -19 40 -33 22 -14
40 -28 40 -32 0 -4 18 -17 40 -29 22 -13 40 -25 40 -28 0 -4 18 -17 40 -31 22
-14 40 -28 40 -32 0 -5 4 -8 10 -8 9 0 18 -6 72 -52 12 -10 24 -18 27 -18 3 0
21 -14 40 -30 18 -17 39 -31 45 -31 22 -3 39 3 53 16 7 8 27 22 43 32 17 9 30
21 30 25 0 4 26 24 58 45 31 21 63 43 70 50 8 7 35 27 60 45 26 17 49 34 52
37 3 4 22 17 42 31 21 14 38 28 38 33 0 35 102 -30 389 -251 102 -78 96 -76
133 -50 18 13 35 25 38 28 3 3 21 17 40 30 19 13 37 27 40 30 3 3 38 29 79 58
40 29 78 58 85 63 44 38 139 99 153 99 10 0 29 -10 43 -22 14 -13 41 -34 62
-48 20 -14 106 -78 192 -142 86 -65 158 -118 161 -118 3 0 40 27 83 60 44 33
84 60 90 60 7 0 12 4 12 8 0 5 18 21 41 38 22 16 65 48 94 72 30 23 56 42 60
42 3 0 16 9 28 20 38 36 60 35 118 -7 30 -20 60 -43 67 -50 7 -7 26 -20 42
-30 17 -9 30 -21 30 -25 0 -4 6 -8 13 -8 6 0 26 -14 44 -30 18 -17 36 -30 40
-30 4 0 22 -12 38 -28 77 -69 115 -93 132 -83 10 5 63 43 118 84 55 42 124 93
153 114 30 21 61 46 70 56 9 9 20 17 24 17 5 0 17 9 28 20 33 33 66 35 104 6
19 -14 39 -26 44 -26 5 0 16 -8 23 -17 8 -9 48 -41 89 -72 41 -30 77 -59 78
-63 2 -4 10 -8 18 -8 8 0 17 -7 20 -15 4 -8 11 -15 16 -15 6 0 23 -11 40 -25
16 -14 36 -25 44 -25 14 0 20 -45 15 -122 -2 -35 0 -38 23 -38 16 0 26 6 26
15 0 9 9 15 25 15 l25 0 0 175 0 175 -34 0 c-19 0 -38 -5 -41 -10 -4 -6 -1 -9
6 -8 6 2 14 -3 16 -9 6 -15 -23 -18 -32 -3 -3 6 -14 10 -24 10 -10 0 -44 20
-77 45 -87 67 -195 148 -224 167 -14 10 -44 31 -68 48 -50 35 -66 37 -89 10
-10 -11 -23 -20 -30 -20 -7 0 -13 -4 -13 -10 0 -5 -5 -10 -11 -10 -6 0 -17 -6
-24 -12 -26 -24 -40 -34 -100 -75 -33 -23 -75 -55 -94 -72 -19 -17 -41 -31
-48 -31 -7 0 -13 -4 -13 -8 0 -10 -87 -72 -100 -72 -6 0 -10 4 -10 9 0 5 -8
12 -17 15 -10 3 -29 16 -43 29 -14 12 -50 39 -80 59 -30 20 -67 48 -82 62 -15
14 -32 26 -38 26 -5 0 -10 5 -10 10 0 6 -5 10 -10 10 -6 0 -22 11 -36 25 -14
14 -28 25 -32 25 -4 0 -19 11 -34 25 -35 32 -71 41 -91 21 -8 -9 -19 -16 -24
-16 -4 0 -22 -14 -40 -30 -18 -17 -37 -30 -43 -30 -6 0 -21 -9 -33 -20 -12
-12 -62 -51 -112 -87 -49 -36 -106 -79 -125 -94 -45 -38 -67 -36 -115 6 -22
19 -43 35 -47 35 -4 0 -13 6 -20 13 -7 6 -33 25 -58 41 -24 16 -56 40 -69 53
-14 12 -29 23 -33 23 -3 0 -13 6 -20 13 -7 7 -44 36 -83 64 l-70 51 -74 -52
c-42 -28 -87 -61 -101 -73 -13 -13 -28 -23 -32 -23 -3 0 -13 -6 -20 -13 -7 -7
-29 -24 -48 -37 -19 -13 -37 -27 -40 -30 -3 -3 -21 -17 -40 -30 -19 -13 -37
-27 -40 -30 -3 -3 -20 -16 -38 -29 l-33 -23 -33 26 c-19 14 -40 31 -48 38 -8
7 -21 18 -30 23 -63 40 -268 192 -288 214 -29 30 -55 40 -76 28z"/>
<path d="M4957 603 c-11 -23 0 -38 28 -40 l30 -2 -30 9 -30 8 28 1 c35 1 38
31 3 31 -14 0 -27 -3 -29 -7z"/>
<path d="M4911 584 c18 -22 21 -47 6 -56 -9 -6 -9 -8 1 -8 7 0 10 -5 7 -11 -4
-6 2 -5 14 3 12 7 17 14 11 16 -5 2 -10 17 -10 33 0 18 -4 28 -10 24 -5 -3
-10 -1 -10 4 0 6 -5 11 -11 11 -8 0 -7 -5 2 -16z"/>
<path d="M1675 468 c-16 -12 -32 -26 -35 -30 -10 -14 -95 -68 -107 -68 -7 0
-13 -6 -13 -12 0 -7 -12 -21 -28 -30 -59 -37 -68 -44 -88 -64 -11 -12 -31 -25
-42 -29 -12 -3 -22 -11 -22 -16 0 -5 -4 -9 -9 -9 -6 0 -22 -11 -37 -25 -36
-33 -50 -31 -108 13 -27 20 -59 44 -71 52 -79 53 -152 106 -163 117 -7 7 -26
20 -42 30 -17 9 -30 21 -30 25 0 4 -5 8 -10 8 -6 0 -23 11 -38 25 -15 14 -34
25 -43 25 -9 0 -50 -25 -92 -55 -41 -30 -78 -55 -81 -55 -4 0 -19 -12 -34 -26
-15 -14 -39 -33 -55 -42 -15 -9 -27 -20 -27 -24 0 -4 -7 -8 -15 -8 -7 0 -18
-6 -22 -12 -8 -13 -34 -32 -61 -45 -8 -3 -28 -18 -45 -34 -34 -32 -39 -31
-108 27 -24 20 -54 41 -66 47 -13 6 -23 16 -23 24 0 7 -6 13 -14 13 -12 0 -36
16 -116 80 l-25 19 -3 -96 c-3 -90 -1 -98 20 -118 30 -27 176 -135 184 -135 3
0 12 -7 20 -15 11 -11 38 -15 98 -15 69 0 87 3 106 20 13 11 27 20 32 20 4 0
25 16 45 35 20 19 40 35 44 35 3 0 24 14 45 31 22 16 53 41 70 55 18 13 47 38
65 54 19 16 40 30 47 30 13 0 76 -42 97 -64 18 -20 91 -66 103 -66 7 0 12 -7
12 -15 0 -8 5 -15 10 -15 6 0 22 -11 36 -25 14 -14 29 -25 33 -25 4 0 17 -8
29 -18 11 -9 30 -25 41 -35 17 -13 40 -17 110 -17 49 0 91 3 93 8 2 4 27 25
57 46 30 21 59 43 65 47 59 50 73 60 89 65 9 3 17 9 17 14 0 5 9 12 20 15 11
4 18 10 16 14 -3 4 12 16 32 26 20 11 41 25 45 32 4 7 13 13 20 13 13 0 93
-54 121 -82 10 -10 23 -18 29 -18 7 0 20 -8 29 -17 19 -21 30 -29 78 -63 35
-25 47 -34 98 -77 23 -20 39 -23 110 -23 70 0 88 4 115 23 18 12 34 24 37 27
3 3 21 17 40 30 19 13 42 32 51 42 9 10 21 18 26 18 6 0 23 12 39 28 16 15 57
47 92 71 l62 44 45 -32 c25 -18 45 -29 45 -25 0 4 10 -4 23 -17 30 -31 65 -59
74 -59 3 0 13 -7 22 -15 31 -30 128 -105 135 -105 4 0 14 -7 22 -15 12 -11 39
-15 112 -15 66 0 92 3 82 10 -13 8 -12 10 3 10 10 0 20 7 23 15 4 8 11 15 18
15 6 0 25 11 41 24 17 14 85 65 153 115 110 82 125 90 145 80 12 -7 24 -15 27
-18 3 -3 25 -20 50 -36 44 -29 80 -57 106 -83 7 -6 16 -12 19 -12 4 0 21 -11
39 -25 17 -14 42 -33 55 -42 13 -10 32 -26 42 -36 15 -13 37 -17 107 -17 76 0
89 3 102 20 8 11 20 20 27 20 7 0 13 5 13 10 0 6 5 10 11 10 5 0 41 25 78 55
38 30 72 55 77 55 5 0 25 14 44 31 89 79 124 96 136 64 3 -8 14 -17 24 -20 18
-6 56 -33 129 -92 19 -16 38 -30 43 -31 5 -2 23 -17 41 -33 17 -16 35 -29 40
-29 4 0 22 -14 40 -30 18 -17 41 -29 52 -28 17 3 20 12 23 72 2 38 1 79 -2 91
-3 13 -38 43 -87 75 -44 29 -83 59 -86 67 -3 7 -11 13 -17 13 -7 0 -21 8 -32
18 -10 10 -40 32 -66 50 -27 18 -48 37 -48 42 0 6 -5 10 -11 10 -6 0 -23 9
-38 20 -28 19 -28 19 -66 -1 -21 -12 -45 -29 -54 -38 -25 -28 -127 -101 -139
-101 -7 0 -12 -5 -12 -10 0 -6 -11 -15 -25 -22 -13 -6 -22 -15 -19 -19 3 -5
-10 -15 -28 -22 -18 -8 -39 -21 -47 -30 -7 -10 -20 -17 -27 -17 -8 0 -14 -6
-14 -13 0 -6 -14 -18 -31 -26 -28 -12 -36 -12 -64 3 -18 10 -50 33 -71 52 -21
18 -42 34 -46 34 -4 0 -13 6 -20 13 -7 7 -29 24 -48 37 -19 13 -42 32 -51 42
-9 10 -19 18 -23 18 -8 0 -63 38 -84 58 -8 7 -29 24 -48 38 l-33 26 -30 -21
c-16 -12 -32 -21 -35 -21 -4 0 -18 -11 -32 -25 -14 -14 -29 -25 -33 -25 -4 0
-19 -10 -33 -23 -13 -12 -49 -39 -79 -59 -30 -20 -65 -46 -79 -58 -14 -12 -36
-30 -50 -38 -14 -9 -29 -22 -33 -29 -4 -7 -15 -13 -22 -13 -8 0 -15 -4 -15
-10 0 -5 -6 -10 -13 -10 -23 0 -67 25 -67 38 0 6 -6 12 -14 12 -8 0 -28 11
-44 25 -17 14 -35 25 -40 25 -6 0 -15 6 -19 13 -4 8 -34 30 -65 50 -32 20 -58
41 -58 45 0 5 -21 20 -47 35 -27 14 -61 39 -77 56 -35 36 -47 38 -71 11 -10
-11 -22 -20 -27 -20 -5 0 -16 -7 -24 -15 -9 -8 -46 -36 -82 -62 -37 -26 -69
-50 -72 -53 -3 -3 -21 -17 -40 -30 -19 -13 -41 -30 -48 -37 -7 -7 -26 -20 -42
-30 -17 -9 -30 -21 -30 -25 0 -4 -5 -8 -12 -8 -6 0 -22 -10 -35 -22 l-23 -21
-22 20 c-13 11 -41 32 -63 46 -22 14 -51 36 -66 49 -26 24 -44 36 -93 66 -16
9 -57 41 -91 70 -34 28 -67 52 -72 52 -5 0 -18 9 -28 20 -22 25 -23 25 -60 -2z"/>
</g>
</svg>
